# xmcd
#
# Track frame offsets:
#	150
#	18424
#	35908
#	50533
#	70755
#	85530
#	93568
#	112428
#	137470
#	155090
#	167002
#	184044
#	213609
#	232978
#	249992
#
# Disc length: 3588 seconds
#
# Revision: 1
# Processed by: cddbd v1.5.1PL0 Copyright (c) Steve Scherf et al.
# Submitted via: CDex 1.50Beta5
#
DISCID=ce0e020f
DTITLE=麦ちょこ倶楽部 - fairy★tale Syokuma Original Sound Track
DYEAR=1900
DGENRE=
TTITLE0=バナナ/I Will...
TTITLE1=オープニング
TTITLE2=Next, it is what.
TTITLE3=超必殺バナナスペシャル?
TTITLE4=バナナの祈り
TTITLE5=あぶりだしなんですよぉ
TTITLE6=shade of a tree
TTITLE7=電話でリクエストコーナー
TTITLE8=laugh
TTITLE9=もうエンディング?
TTITLE10=Put into a crevice!
TTITLE11=今週のプレゼントコーナー
TTITLE12=初瀬まなみ&コリコ&コクリコ/むぎむぎ
TTITLE13=I Will...(カラオケ)
TTITLE14=むぎむぎ(カラオケ)
EXTD=
EXTT0=
EXTT1=
EXTT2=
EXTT3=
EXTT4=
EXTT5=
EXTT6=
EXTT7=
EXTT8=
EXTT9=
EXTT10=
EXTT11=
EXTT12=
EXTT13=
EXTT14=
PLAYORDER=
